/* XPM */
static char *result[] = {
/* columns rows colors chars-per-pixel */
"64 64 223 2 ",
"   c #CC8624",
".  c #D28720",
"X  c #D68A21",
"o  c #D08B24",
"O  c #D48F24",
"+  c #D98B23",
"@  c #D98C20",
"#  c #D98E21",
"$  c #D98C22",
"%  c #DA8D22",
"&  c #DB8E22",
"*  c #DC8F21",
"=  c #D49324",
"-  c #DB9222",
";  c #DD9221",
":  c #DC9022",
">  c #DE9322",
",  c #DF9522",
"<  c #DF9922",
"1  c #D89824",
"2  c #D89328",
"3  c #DF9B28",
"4  c #DE9E2E",
"5  c #CB8C31",
"6  c #D59132",
"7  c #D29536",
"8  c #D99931",
"9  c #D89739",
"0  c #D29839",
"q  c #D59A3B",
"w  c #D49A3E",
"e  c #D89F3E",
"r  c #E09723",
"t  c #E39B21",
"y  c #E29823",
"u  c #E29A23",
"i  c #E49D23",
"p  c #E49C25",
"a  c #E69E24",
"s  c #E6A024",
"d  c #E8A124",
"f  c #E9A224",
"g  c #EBA524",
"h  c #EAA426",
"j  c #ECA627",
"k  c #EDA827",
"l  c #EEAA27",
"z  c #E2A42D",
"x  c #E9A129",
"c  c #E0A82E",
"v  c #EEAC29",
"b  c #EFAF2A",
"n  c #E8AA2C",
"m  c #F2AF27",
"M  c #F1AD29",
"N  c #F1B128",
"B  c #F2B32A",
"V  c #F5B42B",
"C  c #F3B12C",
"Z  c #F2B52D",
"A  c #F5B72C",
"S  c #F6B52F",
"D  c #F6B92B",
"F  c #F7BE2F",
"G  c #F8BA2E",
"H  c #FABC2F",
"J  c #E7A633",
"K  c #E6AF31",
"L  c #E0AA3A",
"P  c #E0AF39",
"I  c #EEB632",
"U  c #EEB934",
"Y  c #E6B33A",
"T  c #F6BC30",
"R  c #FABE31",
"E  c #F0BD38",
"W  c #F9C02F",
"Q  c #FCC132",
"!  c #FCC232",
"~  c #FCC334",
"^  c #FCC535",
"/  c #FDC635",
"(  c #FDC737",
")  c #F4C33D",
"_  c #F9C53D",
"`  c #FEC938",
"'  c #FDCA38",
"]  c #FDCC3A",
"[  c #FDCE3D",
"{  c #FECF3D",
"}  c #CF9946",
"|  c #D7A041",
" . c #D7A143",
".. c #DBA944",
"X. c #D6A14D",
"o. c #D9A64B",
"O. c #DFA949",
"+. c #DFAC4B",
"@. c #D9B445",
"#. c #DAB94B",
"$. c #DFBE4D",
"%. c #D7A952",
"&. c #D6A958",
"*. c #D3A85E",
"=. c #DEB350",
"-. c #DAB057",
";. c #DBBF50",
":. c #DEBE5C",
">. c #E6B649",
",. c #EABB48",
"<. c #EABB49",
"1. c #EAB84E",
"2. c #F0BF46",
"3. c #E3B354",
"4. c #E0B555",
"5. c #E0B559",
"6. c #E8BF5E",
"7. c #DBB460",
"8. c #D7BB60",
"9. c #DCBC6A",
"0. c #E3BB62",
"q. c #E3BC6E",
"w. c #E0BE7B",
"e. c #DCC457",
"r. c #E8C14E",
"t. c #EDC948",
"y. c #F7CF43",
"u. c #FCCB42",
"i. c #FECE47",
"p. c #F1C549",
"a. c #F0C34F",
"s. c #FED140",
"d. c #FED341",
"f. c #FED642",
"g. c #FED846",
"h. c #F1D14E",
"j. c #FCD249",
"k. c #FDD54A",
"l. c #FEDA4C",
"z. c #FEDE4E",
"x. c #EDC75B",
"c. c #E9C15D",
"v. c #E9C25D",
"b. c #F1C754",
"n. c #F1CB54",
"m. c #F8CE51",
"M. c #F4CF5E",
"N. c #ECD151",
"B. c #F5D557",
"V. c #FDD354",
"C. c #FADC50",
"Z. c #FFD855",
"A. c #F3D15C",
"S. c #FDDB59",
"D. c #FEE154",
"F. c #DFCD6F",
"G. c #E0C669",
"H. c #EDCE6A",
"J. c #F4CF63",
"K. c #FFD760",
"L. c #F7D866",
"P. c #FEDF63",
"I. c #F4D36E",
"U. c #FED969",
"Y. c #E8CC73",
"T. c #E3D476",
"R. c #EDD478",
"E. c #EFD57A",
"W. c #F3D771",
"Q. c #F4D770",
"!. c #FEDC74",
"~. c #F1D67A",
"^. c #F2DA7D",
"/. c #FADE7D",
"(. c #FEE26A",
"). c #FEE36F",
"_. c #FEE676",
"`. c #FEE87F",
"'. c #E0C682",
"]. c #E7CC83",
"[. c #E9D18B",
"{. c #EED990",
"}. c #F4E081",
"|. c #F7E380",
" X c #F3E287",
".X c #F4E186",
"XX c #FDE182",
"oX c #F9E685",
"OX c #FEEB85",
"+X c #FEE38A",
"@X c #FDED8E",
"#X c #F3E693",
"$X c #F6E794",
"%X c #FEE590",
"&X c #FEE797",
"*X c #F2E09B",
"=X c #F2E09F",
"-X c #F5EC9D",
";X c #FCF096",
":X c #FDF29B",
">X c #EBDEAB",
",X c #EDE4A8",
"<X c #F0E4A2",
"1X c #FDE7A0",
"2X c #F6EDA4",
"3X c #F6EEA7",
"4X c #FEE9A1",
"5X c #F2E3AA",
"6X c #F2E7A9",
"7X c #F5ECA8",
"8X c #FEEBAA",
"9X c #EAE3B4",
"0X c #FDECB1",
"qX c #FEEEB3",
"wX c #FEEFB7",
"eX c #F7EEBC",
"rX c #FEF0BE",
"tX c #FDF2C1",
"yX c #FEF5C7",
"uX c #FDF7CA",
"iX c #FDF8CD",
"pX c #FDFACF",
"aX c #2B2D42",
/* pixels */
"aXaXaXaXaXaXaXaXaXaXaXaXaXaXaXaXaXaXaXaXaXaXaXaXaXaXaXaXaXaXaXaXaXaXaXaXaXaXaXaXaXaXaXaXaXaXaXaXaXaXaXaXaXaXaXaXaXaXaXaXaXaXaXaX",
"aXaXaXaXaXaXaXaXaXaXaXaXaXaXaXaXaXaXaXaXaXaXaXaXaXaXaXaXaXaXaXaXaXaXaXaXaXaXaXaXaXaXaXaXaXaXaXaXaXaXaXaXaXaXaXaXaXaXaXaXaXaXaXaX",
"aXaXaXaXaXaXaXaXaXaXaXaXaXaXaXaXaXaXaXaXaXaXaXaXaXaXaXaXaXaXaXaXaXaXaXaXaXaXaXaXaXaXaXaXaXaXaXaXaXaXaXaXaXaXaXaXaXaXaXaXaXaXaXaX",
"aXaXaXaXaXaXaXaXaXaXaXaXaXaXaXaXaXaXaXaXaXaXaXaXaXaXaXaXaXaXaXaXaXaXaXaXaXaXaXaXaXaXaXaXaXaXaXaXaXaXaXaXaXaXaXaXaXaXaXaXaXaXaXaX",
"aXaXaXaXaXaXaXaXaXaXaXaXaXaXaXaXaXaXaXaXaXaXaXaXaXaXaXaXaXaXaXaXaXaXaXaXaXaXaXaXaXaXaXaXaXaXaXaXaXaXaXaXaXaXaXaXaXaXaXaXaXaXaXaX",
"aXaXaXaXaXaXaXaXaXaXaXaXaXaXaXaXaXaXaXaXaXaXaXaXaXaXaXaXaXaXaXaXaXaXaXaXaXaXaXaXaXaXaXaXaXaXaXaXaXaXaXaXaXaXaXaXaXaXaXaXaXaXaXaX",
"aXaXaXaXaXaXaXaXaXaXaXaXaXaXaXaXaXaXaXaXaXaXaXaXaXaXaXaXaXaXaXaXaXaXaXaXaXaXaXaXaXaXaXaXaXaXaXaXaXaXaXaXaXaXaXaXaXaXaXaXaXaXaXaX",
"aXaXaXaXaXaXaXaXaXaXaXaXaXaXaXaXaXaXaXaXaXaXaXaXaXaXaXaXaXaXaXaXaXaXaXaXaXaXaXaXaXaXaXaXaXaXaXaXaXaXaXaXaXaXaXaXaXaXaXaXaXaXaXaX",
"aXaXaXaXaXaXaXaXaXaXaXaXaXaXaXaXaXaXaXaXaXaXaXaXaXaXaXaXaXaXaXaXaXaXaXaXaXaXaXaXaXaXaXaXaXaXaXaXaXaXaXaXaXaXaXaXaXaXaXaXaXaXaXaX",
"aXaXaXaXaXaXaXaXaXaXaXaXaXaXaXaXaXaXaXaXaXaXaXaXaXaXaXaXaXaXaXaXaXaXaXaXaXaXaXaXaXaXaXaXaXaXaXaXaXaXaXaXaXaXaXaXaXaXaXaXaXaXaXaX",
"aXaXaXaXaXaXaXaXaXaXaXaXaXaXaXaXaXaXaXaXaXaXaXaXaXaX<X7X2X#X$X#X X X.X^.}.R.aXaXaXaXaXaXaXaXaXaXaXaXaXaXaXaXaXaXaXaXaXaXaXaXaXaX",
"aXaXaXaXaXaXaXaXaXaXaXaXaXaXaXaXaXaXaXaXaXaXaX,X3X-X XT.G.e.e.;.$.$.#.$.r.b.A.W.E.aXaXaXaXaXaXaXaXaXaXaXaXaXaXaXaXaXaXaXaXaXaXaX",
"aXaXaXaXaXaXaXaXaXaXaXaXaXaXaXaXaXaXaXaXaX<X2X#XF.e.e.N.B.C.C.C.C.l.k.y.) U P Y p.M.R.aXaXaXaXaXaXaXaXaXaXaXaXaXaXaXaXaXaXaXaXaX",
"aXaXaXaXaXaXaXaXaXaXaXaXaXaXaXaXaXaXaXaX3X#XF.e.N.C.D.D.z.l.l.g.g.f.d.s.{ ] ' E K P b.W.aXaXaXaXaXaXaXaXaXaXaXaXaXaXaXaXaXaXaXaX",
"aXaXaXaXaXaXaXaXaXaXaXaXaXaXaXaXaXaX,X-XT.;.h.z.z.z.l.g.g.f.d.s.{ [ ] ` ( / ^ ^ ~ U L 6..X,XaXaXaXaXaXaXaXaXaXaXaXaXaXaXaXaXaXaX",
"aXaXaXaXaXaXaXaXaXaXaXaXaXaXaXaXaX6X$Xe.r.C.z.l.g.f.f.d.s.{ ] ' ' ( ( ^ ~ ! Q R W R G n 7.=X9XaXaXaXaXaXaXaXaXaXaXaXaXaXaXaXaXaX",
"aXaXaXaXaXaXaXaXaXaXaXaXaXaXaXaX6X X;.t.l.g.f.d.s.{ [ ] ` ( ^ _ ~ Q Q Q R R H G D A A V J -.5X9XaXaXaXaXaXaXaXaXaXaXaXaXaXaXaXaX",
"aXaXaXaXaXaXaXaXaXaXaXaXaXaXaX<X X#.t.f.s.s.{ ] ' ( ( _ m.B.L.L.L.B.m.) T S S S V C m m M z %.=X<XaXaXaXaXaXaXaXaXaXaXaXaXaXaXaX",
"aXaXaXaXaXaXaXaXaXaXaXaXaXaXaX X#.) s.[ ] ' ` / ^ u.L.oX;X;X@XOX`.).P.S.m.) Z b M v l k j g 4 %.{.aXaXaXaXaXaXaXaXaXaXaXaXaXaXaX",
"aXaXaXaXaXaXaXaXaXaXaXaXaXaX.X$.U ] ` ( / ^ ~ _ L.@X:X;X@XOX_.).P.S.l.k.s.u._ Z k h h x x a a 2 -.^.aXaXaXaXaXaXaXaXaXaXaXaXaXaX",
"aXaXaXaXaXaXaXaXaXaXaXaXaX}.x.P / / ^ ~ Q Q p./.:X;X@XOX_.).P.S.l.k.s.] ` / ^ Q C f a p p u y r O ,.H.aXaXaXaXaXaXaXaXaXaXaXaXaX",
"aXaXaXaXaXaXaXaXaXaXaXaXaXQ.L T Q Q R R H p.|.;XOX`._.(.P.S.k.d.{ ] ` ( ^ ! W F G M p r r , > ; & = a.aXaXaXaXaXaXaXaXaXaXaXaXaX",
"aXaXaXaXaXaXaXaXaXaXaXaX~.,.K R R H G D E /.@X`._.(.P.S.k.j.[ ] ` ^ ~ Q W F T A Z C h , > : : * & . z v.aXaXaXaXaXaXaXaXaXaXaXaX",
"aXaXaXaXaXaXaXaXaXaXaXaXA.c A G D S S Z I.OX_.(.P.S.k.s.[ ] ( / ~ Q F H D A B N b v k u # % % % $ X o <.aXaXaXaXaXaXaXaXaXaXaXaX",
"aXaXaXaXaXaXaXaXaXaXaXR.,.z S V C C M 2.|.(.P.Z.k.s.[ ` ( / ~ Q R H D A B N M l k j f i # + $ $ + $   4 3.aXaXaXaXaXaXaXaXaXaXaX",
"aXaXaXaXaXaXaXaXaXaXaXJ.c n C M v l v I.P.Z.k.s.] ' ( ^ ~ W F T D Z B N M l k g f a i p : + $ + $ % X o +.aXaXaXaXaXaXaXaXaXaXaX",
"aXaXaXaXaXaXaXaXaXaXaXn.4 l l k j g Y L.k.s.[ ' ( ^ ! W F T D A B b b l j h f s i t y r - X % % * * :   e aXaXaXaXaXaXaXaXaXaXaX",
"aXaXaXaXaXaXaXaXaXaXaXb.1 j h f x s r.V.' ` ( ^ ! W H G A Z B b M l j h d a i t < r > - & . * ; > , , . 6 aXaXaXaXaXaXaXaXaXaXaX",
"aXaXaXaXaXaXaXaXaXaXE.6.1 x a a i 3 x.u.( ^ ! W F T A V B m v k j h d a p y r , > ; : * # . ; r r y t # o aXaXaXaXaXaXaXaXaXaXaX",
"aXaXaXaXaXaXaXaXaXaX<X6.2 p y y < 4 b.^ Q F T D A Z N M v k j f d a t u r , > ; : * % % $ . ; t i a d y o &.aXaXaXaXaXaXaXaXaXaX",
"aXaXaXaXaXaXaXaXaXaX*Xq.O r , > ; 4 b.W T D A V N b v k j f d a p y r , > > : & @ @ $ $ $ . , f f g k d O X.aXaXaXaXaXaXaXaXaXaX",
"aXaXaXaXaXaXaXaXaXaX6Xw.o > - : & 8 r.D A B N b l k g f s a t y r , > : & # % $ @ @ @ % * $ < k l v m k 3 5.aXaXaXaXaXaXaXaXaXaX",
"aXaXaXaXaXaXaXaXaXaX6X'.o * * & % 8 ,.C b M l k h f s i t y r , ; : * % $ $ $ $ @ # : > y > s m N B V b c 5.aXaXaXaXaXaXaXaXaXaX",
"aXaXaXaXaXaXaXaXaXaX<X].  $ $ $ $ 2 >.v l j h f a i u r , , > - & % @ $ $ + @ % * > < p f 3 n A D G H Z Y 0.aXaXaXaXaXaXaXaXaXaX",
"aXaXaXaXaXaXaXaXaXaX>X[.  + $ $ $ # P n h f a p u y r > ; - # % $ $ @ + $ % : , y i f j M 4 B H R R ! U E aXaXaXaXaXaXaXaXaXaXaX",
"aXaXaXaXaXaXaXaXaXaXaX{.5 + % # # % L J a p u r , > ; ; * % $ $ $ @ @ & : , y a h k M V S z R Q ~ ^ ( U 2.aXaXaXaXaXaXaXaXaXaXaX",
"aXaXaXaXaXaXaXaXaXaXaX^.0 + * : - ; 4 L y r , > - : & % % $ $ $ @ & ; , u a h k M V G W I K ( ( ' u.u.U <.aXaXaXaXaXaXaXaXaXaXaX",
"aXaXaXaXaXaXaXaXaXaXaX~.L X > , , y 3 L < > - : # % $ $ $ $ % & ; r u s h l m S G R ~ ( L ) [ i.j.V.m.Y 4.aXaXaXaXaXaXaXaXaXaXaX",
"aXaXaXaXaXaXaXaXaXaXaXR.,.O y y t i a J 4 : % % $ $ + $ % * ; r t s j l C S H Q ^ ` [ E Y j.V.V.K.U.b.P &.aXaXaXaXaXaXaXaXaXaXaX",
"aXaXaXaXaXaXaXaXaXaXaXaXa.1 t s f f g k J 2 @ $ $ $ % : > r p d j v B A H Q ^ ` ] s.y.P m.K.U.U.!.!.>...aXaXaXaXaXaXaXaXaXaXaXaX",
"aXaXaXaXaXaXaXaXaXaXaXaXv.c < j k l l m N x % $ % * > y p f j M C A H Q ^ ` ] s.f.k.@.x.!.!./.XX+XI. .o.aXaXaXaXaXaXaXaXaXaXaXaX",
"aXaXaXaXaXaXaXaXaXaXaXaXaX=.1 l m N B V A S 4 : > y a x k M C D R ! / ' [ s.f.g.k.#.G.XXXX+X%X&X&X-.w aXaXaXaXaXaXaXaXaXaXaXaXaX",
"aXaXaXaXaXaXaXaXaXaXaXaXaX5.4 i D D D G H W T z 3 h l M V G R ~ ( ' { s.f.g.z.h.#.Y.%X%X&X1X4X8X].7 X.aXaXaXaXaXaXaXaXaXaXaXaXaX",
"aXaXaXaXaXaXaXaXaXaXaXaXaXaXO.= b W W Q ~ ^ ( _ K c b G Q ^ ( ] [ d.f.l.l.B.;.8.{.1X1X8X8X0XqX=X .} aXaXaXaXaXaXaXaXaXaXaXaXaXaX",
"aXaXaXaXaXaXaXaXaXaXaXaXaXaXaXw = T ( ( ` u.u.i.i.p.>.Y U ) u.y.j.j.h.t.;.8.[.1X8X8X0XwXrXtX0X-.w aXaXaXaXaXaXaXaXaXaXaXaXaXaXaX",
"aXaXaXaXaXaXaXaXaXaXaXaXaXaXaX*.7 1 ) i.i.j.V.V.K.U.U.I.x.6.:.:.:.9.G.].{.8XqXqXwXrXrXtXyXeX9.| aXaXaXaXaXaXaXaXaXaXaXaXaXaXaXaX",
"aXaXaXaXaXaXaXaXaXaXaXaXaXaXaXaX&.0 4 b.K.K.U.U.!./.XX+X%X&X&X1X1X8X0XwXwXwXrXtXyXyXuXuXeX9.| *.aXaXaXaXaXaXaXaXaXaXaXaXaXaXaXaX",
"aXaXaXaXaXaXaXaXaXaXaXaXaXaXaXaXaX&...L x.!.XXXX+X%X&X&X1X8X8X0XqXwXrXtXtXyXyXuXiXpXpX5X7...aXaXaXaXaXaXaXaXaXaXaXaXaXaXaXaXaXaX",
"aXaXaXaXaXaXaXaXaXaXaXaXaXaXaXaXaXaXaX1.,.x./.&X4X4X8X8X0XqXwXrXtXtXyXyXuXuXiXpXpXtX[.-.4.aXaXaXaXaXaXaXaXaXaXaXaXaXaXaXaXaXaXaX",
"aXaXaXaXaXaXaXaXaXaXaXaXaXaXaXaXaXaXaXaXc.a.r.Y.=X0XwXrXtXtXyXyXuXuXiXpXpXpXpXeX[.9.=.0.aXaXaXaXaXaXaXaXaXaXaXaXaXaXaXaXaXaXaXaX",
"aXaXaXaXaXaXaXaXaXaXaXaXaXaXaXaXaXaXaXaXaXaXc.<.>.q.[.5XrXyXiXpXpXpXiXyXeX=X'.8.=.c.aXaXaXaXaXaXaXaXaXaXaXaXaXaXaXaXaXaXaXaXaXaX",
"aXaXaXaXaXaXaXaXaXaXaXaXaXaXaXaXaXaXaXaXaXaXaXaX3.O.|  .%.7.q.w.w.w.9.7.-.=.4.0.aXaXaXaXaXaXaXaXaXaXaXaXaXaXaXaXaXaXaXaXaXaXaXaX",
"aXaXaXaXaXaXaXaXaXaXaXaXaXaXaXaXaXaXaXaXaXaXaXaXaXaXaXaXX.9 q q q q o.3.aXaXaXaXaXaXaXaXaXaXaXaXaXaXaXaXaXaXaXaXaXaXaXaXaXaXaXaX",
"aXaXaXaXaXaXaXaXaXaXaXaXaXaXaXaXaXaXaXaXaXaXaXaXaXaXaXaXaXaXaXaXaXaXaXaXaXaXaXaXaXaXaXaXaXaXaXaXaXaXaXaXaXaXaXaXaXaXaXaXaXaXaXaX",
"aXaXaXaXaXaXaXaXaXaXaXaXaXaXaXaXaXaXaXaXaXaXaXaXaXaXaXaXaXaXaXaXaXaXaXaXaXaXaXaXaXaXaXaXaXaXaXaXaXaXaXaXaXaXaXaXaXaXaXaXaXaXaXaX",
"aXaXaXaXaXaXaXaXaXaXaXaXaXaXaXaXaXaXaXaXaXaXaXaXaXaXaXaXaXaXaXaXaXaXaXaXaXaXaXaXaXaXaXaXaXaXaXaXaXaXaXaXaXaXaXaXaXaXaXaXaXaXaXaX",
"aXaXaXaXaXaXaXaXaXaXaXaXaXaXaXaXaXaXaXaXaXaXaXaXaXaXaXaXaXaXaXaXaXaXaXaXaXaXaXaXaXaXaXaXaXaXaXaXaXaXaXaXaXaXaXaXaXaXaXaXaXaXaXaX",
"aXaXaXaXaXaXaXaXaXaXaXaXaXaXaXaXaXaXaXaXaXaXaXaXaXaXaXaXaXaXaXaXaXaXaXaXaXaXaXaXaXaXaXaXaXaXaXaXaXaXaXaXaXaXaXaXaXaXaXaXaXaXaXaX",
"aXaXaXaXaXaXaXaXaXaXaXaXaXaXaXaXaXaXaXaXaXaXaXaXaXaXaXaXaXaXaXaXaXaXaXaXaXaXaXaXaXaXaXaXaXaXaXaXaXaXaXaXaXaXaXaXaXaXaXaXaXaXaXaX",
"aXaXaXaXaXaXaXaXaXaXaXaXaXaXaXaXaXaXaXaXaXaXaXaXaXaXaXaXaXaXaXaXaXaXaXaXaXaXaXaXaXaXaXaXaXaXaXaXaXaXaXaXaXaXaXaXaXaXaXaXaXaXaXaX",
"aXaXaXaXaXaXaXaXaXaXaXaXaXaXaXaXaXaXaXaXaXaXaXaXaXaXaXaXaXaXaXaXaXaXaXaXaXaXaXaXaXaXaXaXaXaXaXaXaXaXaXaXaXaXaXaXaXaXaXaXaXaXaXaX",
"aXaXaXaXaXaXaXaXaXaXaXaXaXaXaXaXaXaXaXaXaXaXaXaXaXaXaXaXaXaXaXaXaXaXaXaXaXaXaXaXaXaXaXaXaXaXaXaXaXaXaXaXaXaXaXaXaXaXaXaXaXaXaXaX",
"aXaXaXaXaXaXaXaXaXaXaXaXaXaXaXaXaXaXaXaXaXaXaXaXaXaXaXaXaXaXaXaXaXaXaXaXaXaXaXaXaXaXaXaXaXaXaXaXaXaXaXaXaXaXaXaXaXaXaXaXaXaXaXaX",
"aXaXaXaXaXaXaXaXaXaXaXaXaXaXaXaXaXaXaXaXaXaXaXaXaXaXaXaXaXaXaXaXaXaXaXaXaXaXaXaXaXaXaXaXaXaXaXaXaXaXaXaXaXaXaXaXaXaXaXaXaXaXaXaX"
};
