/* XPM */
static char *result[] = {
/* columns rows colors chars-per-pixel */
"64 64 220 2 ",
"   c #211212",
".  c #251314",
"X  c #261616",
"o  c #261817",
"O  c #2B1D1D",
"+  c #141B2F",
"@  c #191C2D",
"#  c #141A32",
"$  c #16203A",
"%  c #19223A",
"&  c #1D263A",
"*  c #2E2322",
"=  c #322626",
"-  c #382D2B",
";  c #323130",
":  c #373132",
">  c #393636",
",  c #403535",
"<  c #142345",
"1  c #1B2444",
"2  c #16274A",
"3  c #182549",
"4  c #16284B",
"5  c #182A4F",
"6  c #162951",
"7  c #142D57",
"8  c #152D59",
"9  c #1A2F59",
"0  c #1C2F5D",
"q  c #16305E",
"w  c #1C315F",
"e  c #1E315E",
"r  c #202A44",
"t  c #29324E",
"y  c #273352",
"u  c #26365C",
"i  c #383F52",
"p  c #163161",
"a  c #153366",
"s  c #153268",
"d  c #14356B",
"f  c #14376F",
"g  c #173775",
"h  c #163A77",
"j  c #173B7D",
"k  c #123F7E",
"l  c #143D7F",
"z  c #263960",
"x  c #2B3D67",
"c  c #293E69",
"v  c #453F41",
"b  c #3E4148",
"n  c #3E4956",
"m  c #3F465A",
"M  c #2A446F",
"N  c #394C60",
"B  c #2A4375",
"V  c #27457E",
"C  c #384575",
"Z  c #444141",
"A  c #504545",
"S  c #52494A",
"D  c #544E4E",
"F  c #4C5159",
"G  c #545352",
"H  c #5F5556",
"J  c #545359",
"K  c #5A575F",
"L  c #46567A",
"P  c #58617F",
"I  c #6A6262",
"U  c #696564",
"Y  c #61616B",
"T  c #6D6B69",
"R  c #6D6A6A",
"E  c #726F6E",
"W  c #756F6F",
"Q  c #71706F",
"!  c #73706F",
"~  c #7A7573",
"^  c #787575",
"/  c #70707C",
"(  c #7C797C",
")  c #7E7C7D",
"_  c #837E7F",
"`  c #82807F",
"'  c #144088",
"]  c #15438E",
"[  c #174693",
"{  c #164594",
"}  c #174697",
"|  c #1F4191",
" . c #1A479C",
".. c #184899",
"X. c #18489C",
"o. c #194A9D",
"O. c #1A489E",
"+. c #2C4180",
"@. c #304D88",
"#. c #34558E",
"$. c #3D5A8C",
"%. c #2F5395",
"&. c #1A49A0",
"*. c #194AA0",
"=. c #1B49A5",
"-. c #184BA5",
";. c #1A4CAA",
":. c #1B4CAF",
">. c #1C4FB2",
",. c #1C50B6",
"<. c #1F50BB",
"1. c #345DA8",
"2. c #777B8F",
"3. c #4167A5",
"4. c #476DA6",
"5. c #4A73AD",
"6. c #1F54C1",
"7. c #1F53C8",
"8. c #1F55CC",
"9. c #2152C1",
"0. c #2155C5",
"q. c #2156C9",
"w. c #2257CD",
"e. c #2258CF",
"r. c #2056D0",
"t. c #2257D3",
"y. c #2258D2",
"u. c #2258D5",
"i. c #2259D5",
"p. c #235AD5",
"a. c #2259D6",
"s. c #2358D7",
"d. c #2359D7",
"f. c #225AD7",
"g. c #265DD7",
"h. c #2358D9",
"j. c #2259DA",
"k. c #245BD8",
"l. c #275ED9",
"z. c #3162C0",
"x. c #2960DB",
"c. c #2B65DB",
"v. c #2B62DD",
"b. c #346CDB",
"n. c #3A72DA",
"m. c #2E66E1",
"M. c #3069E2",
"N. c #336EE3",
"B. c #3670E8",
"V. c #3874E9",
"C. c #3C79E9",
"Z. c #3D7BED",
"A. c #4A77C3",
"S. c #437ADD",
"D. c #5E87BB",
"F. c #7299BE",
"G. c #4E82D5",
"H. c #5D8ED9",
"J. c #4881E4",
"K. c #4D8BEC",
"L. c #5490ED",
"P. c #5E99EE",
"I. c #4483F1",
"U. c #4888F4",
"Y. c #4B8EF5",
"T. c #4C90F7",
"R. c #4E91FB",
"E. c #5594F1",
"W. c #699CE4",
"Q. c #73A2E1",
"!. c #7DB4EA",
"~. c #838183",
"^. c #888586",
"/. c #8B8A8B",
"(. c #918E8F",
"). c #90908E",
"_. c #858898",
"`. c #959291",
"'. c #9B9797",
"]. c #9F9B9B",
"[. c #9F9D9C",
"{. c #9696A2",
"}. c #A3A1A1",
"|. c #A8A4A4",
" X c #ABA8A7",
".X c #AFABAB",
"XX c #B1B1B1",
"oX c #B4B1B1",
"OX c #BAB7B6",
"+X c #BFBBBB",
"@X c #81A6C8",
"#X c #8BADD3",
"$X c #82A9DC",
"%X c #85B1ED",
"&X c #92BCEC",
"*X c #9AC0EB",
"=X c #A1C5ED",
"-X c #ACD0F0",
";X c #B7D7F3",
":X c #C2C1C1",
">X c #C7C4C6",
",X c #CECCCB",
"<X c #D4D2D0",
"1X c #D8D5D4",
"2X c #DAD9D8",
"3X c #DFDFDE",
"4X c #C2DDF5",
"5X c #C9E3F6",
"6X c #D0E8F9",
"7X c #DCEEF8",
"8X c #E4E3E2",
"9X c #E7E7E6",
"0X c #EBE9E8",
"qX c #EEEDEC",
"wX c #F0F0EF",
"eX c #F3F2F1",
"rX c gray96",
"tX c #F8F8F7",
"yX c #FAFAF8",
"uX c #2B2D42",
/* pixels */
"uXuXuXuXuXuXuXuXuXuXuXuXuXuXuXuXuXuXuXuXuXuXuXuXuXuXuXuXuXuXuXuXuXuXuXuXuXuXuXuXuXuXuXuXuXuXuXuXuXuXuXuXuXuXuXuXuXuXuXuXuXuXuXuX",
"uXuXuXuXuXuXuXuXuXuXuXuXuXuXuXuXuXuXuXuXuXuXuXuXuXuXuXuXuXuXuXuXuXuXuXuXuXuXuXuXuXuXuXuXuXuXuXuXuXuXuXuXuXuXuXuXuXuXuXuXuXuXuXuX",
"uXuXuXuXuXuXuXuXuXuXuXuXuXuXuXuXuXuXuXuXuXuXuXuXuXuXuXuXuXuXuXuXuXuXuXuXuXuXuXuXuXuXuXuXuXuXuXuXuXuXuXuXuXuXuXuXuXuXuXuXuXuXuXuX",
"uXuXuXuXuXuXuXuXuXuXuXuXuXuXuXuXuXuXuXuXuXuXuXuXuXuXuXuXuXuXuXuXuXuXuXuXuXuXuXuXuXuXuXuXuXuXuXuXuXuXuXuXuXuXuXuXuXuXuXuXuXuXuXuX",
"uXuXuXuXuXuXuXuXuXuXuXuXuXuXuXuXuXuXuXuXuXuXuXuXuXuXuXuXuXuXuXuXuXuXuXuXuXuXuXuXuXuXuXuXuXuXuXuXuXuXuXuXuXuXuXuXuXuXuXuXuXuXuXuX",
"uXuXuXuXuXuXuXuXuXuXuXuXuXuXuXuXuXuXuXuXuXuXuXuXuXuXuXuXuXuXuXuXuXuXuXuXuXuXuXuXuXuXuXuXuXuXuXuXuXuXuXuXuXuXuXuXuXuXuXuXuXuXuXuX",
"uXuXuXuXuXuXuXuXuXuXuXuXuXuXuXuXuXuXuXuXuXuXuXuXuXuXuXuXuXuXuXuXuXuXuXuXuXuXuXuXuXuXuXuXuXuXuXuXuXuXuXuXuXuXuXuXuXuXuXuXuXuXuXuX",
"uXuXuXuXuXuXuXuXuXuXuXuXuXuXuXuXuXuXuXuXuXuXuXuXuXuXuXuXuXuXuXuXuXuXuXuXuXuXuXuXuXuXuXuXuXuXuXuXuXuXuXuXuXuXuXuXuXuXuXuXuXuXuXuX",
"uXuXuXuXuXuXuXuXuXuXuXuXuXuXuXuXuXuXuXuXuXuXuXuXuXuXuXuXuXuXuXuXuXuXuXuXuXuXuXuXuXuXuXuXuXuXuXuXuXuXuXuXuXuXuXuXuXuXuXuXuXuXuXuX",
"uXuXuXuXuXuXuXuXuXuXuXuXuXuXuXuXuXuXuXuXuXuXuXuXuXuXuXuXuXuXuXuXuXuXuXuXuXuXuXuXuXuXuXuXuXuXuXuXuXuXuXuXuXuXuXuXuXuXuXuXuXuXuXuX",
"uXuXuXuXuXuXuXuXuXuXuXuXuXuXuXuXuXuXuXuXuXuXuXuXuXuXuXuXuXuXuXuXuXuXuXuXuXuXuXuXuXuXuXuXuXuXuXuXuXuXuXuXuXuXuXuXuXuXuXuXuXuXuXuX",
"uXuXuXuXuXuXuXuXuXuXuXuXuXuXuXuXuXuXuXuXuXuXuXuXuXuXuXuXuXuXuXuXuXuXuXuXuXuXuXuXuXuXuXuXuXuXuXuXuXuXuXuXuXuXuXuXuXuXuXuXuXuXuXuX",
"uXuXuXuXuXuXuXuXuXuXuXuXuXuXuXuXuXuXuXuXuXuXuXuXuXuXuXuXuXuXuXuXuXuXuXuXuXuXuXuXuXuXuXuXuXuXuXuXuXuXuXuXuXuXuXuXuXuXuXuXuXuXuXuX",
"uXuXuXuXuXuXuXuXuXuXuXuXuXuXuXuXuXuXuXuXuXuXuXuXuXuXuXuXuXuXuXuXuXuXuXuXuXuXuXuXuXuXuXuXuXuXuXuXuXuXuXuXuXuXuXuXuXuXuXuXuXuXuXuX",
"uXuXuXuXuXuXuXuXuXuXuXuXuXuXuXuXuXuXuXuXuXuXuXuXuXuXuXuXuXuXuXuXuXuXuXuXuXuXuXuXuXuXuXuXuXuXuXuXuXuXuXuXuXuXuXuXuXuXuXuXuXuXuXuX",
"uXuXuXuXuXuXuXuXuXuXuXuXuXuXuXuXuXuXuXuXuXuXuXuXuXuXuXuXuXuXuXuXuXuXuXuXuXuXuXuXuXuXuXuXuXuXuXuXuXuXuXuXuXuXuXuXuXuXuXuXuXuXuXuX",
"uXuXuXuXuXuXuXuXuXuXuXuXuXuXuXuXuXuXuXuXuXuXuXuXuXuXuXuXuXuXuXuXuXuXuXuXuXuXuXuXuXuXuXuXuXuXuXuXuXuXuXuXuXuXuXuXuXuXuXuXuXuXuXuX",
"uXuXuXuXuXuXuXuXuXuXuXuXuXuXuXuXuXuXuXuXuXuXuXuXuXuXuXuXuXuXuXuXuXuXuXuXuXuXuXuXuXuXuXuXuXuXuXuXuXuXuXuXuXuXuXuXuXuXuXuXuXuXuXuX",
"uXuXuXuXuXuXuXuXuXuXuXuXuXuXuXuXuXuXuXuXuXuXuXuXuXuXuXuXuXuXuXuXuXuXuXuXuXuXuXuXuXuXuXuXuXuXuXuXuXuXuXuXuXuXuXuXuXuXuXuXuXuXuXuX",
"uXuXuXuXuXuXuXuXuXuXuXuXuXuXuXuXuXuXuXuXuXuXuXuXuXuXuXuXuXuXuXuXuXuXuXuXuXuXuXuXuXuXuXuXuXuXuXuXuXuXuXuXuXuXuXuXuXuXuXuXuXuXuXuX",
"uXuXuXuXuXuXuXuXuXuXuXuXuXuXuXuXuXuXuXuXuXuXuXuXuXuXuXuXuXuXuXuXuXuXuXuXuXuXuXuXuXuXuXuXuXuXuXuXuXuXuXuXuXuXuXuXuXuXuXuXuXuXuXuX",
"uXuXuXuXuXuXuXuXuXuXuXuXuXuXuXuXuXuXuXuXuXuXuXuXuXuXuXuXuXuXuXuXuXuXuXuXuXuXuXuXuXuXuXuXuXuXuXuXuXuXuXuXuXuXuXuXuXuXuXuXuXuXuXuX",
"uXuXuXuXuXuXuXuXuXuXuXuXuXuXuXuXuXuXuXuXuXuXuXuXuXuXuXuXuXuXuXuXuXuXuXuXuXuXuXuXuXuXuXuXuXuXuXuXuXuXuXuXuXuXuXuXuXuXuXuXuXuXuXuX",
"uXuXuXuXuXuXuXuXuXuXuXuXuXuXuXuXuXuXuXuXuXuXuXuXuXuXuXuXuXuXuXuXuXuXuXuXuXuXuXuXuXuXuXuXuXuXuXuXuXuXuXuXuXuXuXuXuXuXuXuXuXuXuXuX",
"uXuXuXuXuXuXuXuXuXuXuXuXuXuXuXuXuXuXuXuXuXuXuXuXuXuXuX1 e c B B M 0 3 uXuXuXuXuXuXuXuXuXuXuXuXuXuXuXuXuXuXuXuXuXuXuXuXuXuXuXuXuX",
"uXuXuXuXuXuXuXuXuXuXuXuXuXuXuXuXuXuXuXuXuXuXuXuX3 V 1.A.G.H.W.W.K.J.z.| s 2 # uXuXuXuXuXuXuXuXuXuXuXuXuXuXuXuXuXuXuXuXuXuXuXuXuX",
"uXuXuXuXuXuXuXuXuXuXuXuXuXuXuXuXuXuXuXuXuXuXw %.A.Q.&X-X4X7X7X;XE.R.T.V.e.=.j 8 % uXuXuXuXuXuXuXuXuXuXuXuXuXuXuXuXuXuXuXuXuXuXuX",
"uXuXuXuXuXuXuXuXuXuXuXuXuXuXuXuXuXuXuXuX0 %.H.=X6X7X5X;X=X&X%XP.T.R.R.I.N.e.>...j 5 + uXuXuXuXuXuXuXuXuXuXuXuXuXuXuXuXuXuXuXuXuX",
"uXuXuXuXuXuXuXuXuXuXuXuXuXuXuXuXuXuXuXB A.&X6X4X%XW.E.Y.Y.Y.U.U.U.I.I.C.B.v.w.<.-.[ a & uXuXuXuXuXuXuXuXuXuXuXuXuXuXuXuXuXuXuXuX",
"uXuXuXuXuXuXuXuXuXuXuXuXuXuXuXuXuXuX@.H.;X5X%XL.Y.T.T.U.I.Z.V.B.B.B.B.B.B.x.u.d.0.;.X.h 2 uXuXuXuXuXuXuXuXuXuXuXuXuXuXuXuXuXuXuX",
"uXuXuXuXuXuXuXuXuXuXuXuXuXuXuXuXuX#.Q.5X-XP.Y.T.Y.I.V.N.M.m.c.x.l.g.v.m.M.p.i.a.d.6.*.o.l 4 uXuXuXuXuXuXuXuXuXuXuXuXuXuXuXuXuXuX",
"uXuXuX; uXuXuXuXuXuXuXuXuXuXuXuX#.Q.5X*XL.Y.U.Z.B.v.k.f.i.t.t.y.y.i.u.u.i.i.s.u.e.y.,.*. .h 2 uXuXuXuXuXuXuXuXuXuXuXuX; uXuXuXuX",
"uXuXuX].G uXuXuXuXuXuXuXuXuXuXB W.5X&XK.I.C.N.v.d.y.7.y.f.e.t.s.s.i.i.u.p.m.d.t.q.p.q.-...} f % uXuXuXuXuXuXuXuXuXuXQ ) uXuXuXuX",
"uXuXG 8X[.uXuXuXuXuXuXuXuXuXz D.4X&XK.C.B.M.g.y.u.i.w.l.l.i.i.d.p.i.i.a.a.k.y.e.y.u.u.<.} ..[ a uXuXuXuXuXuXuXuXuXuX:X XuXuXuXuX",
"uXuXT wX9XQ uXuXuXuXuXuXuXuX4.-X=XK.C.B.m.d.t.7.r.s.s.d.w.9.:.=.:.7.y.f.d.t.y.r.i.y.i.y.:.O.O.' 6 uXuXuXuXuXuXuXuX[.wXoXZ uXuXuX",
"uXuXQ eXtX:Xb uXuXuXuXuXuXM $X-XL.Z.B.c.y.d.x.i.i.d.q.| C P 2._.2.P +.=.y.e.y.t.u.u.r.d.0.=.&.X.h # uXuXuXuXuXuXE 0XwXoXZ uXuXuX",
"uXuXG .XoX(.R T uXuXuXuXuX5.-XW.I.B.v.8.u.k.m.k.f.<.+._.1XqX8X1X<X1X>X2.+.9.f.8.u.i.r.u.y.>.*.*.] 5 uXuXuXuXuXE ~ }..X/.> uXuXuX",
"uXuXuXR ^.}.8X8X` @ uXuXc $X&XU.V.m.e.7.e.u.d.f.<.C +XqX.XK , = = , R +X].x :.f.s.k.x.u.a.q.=.O...f @ uXuX; [.0X1X`.( D uXuXuXuX",
"uXuXuX[.yXtXtXqX~.].|.J $.*XP.Z.M.p.k.r.8.u.s.0.C :X9XR = o   . . .   = ].}.u <.d.k.v.d.s.s.<. .o.' 5 E XX/. XtXtXtX,XU uXuXuXuX",
"uXuXuXG <XeX,X( '.eXwX/ D.!.I.B.g.p.x.v.g.s.i.| {.qX~ _ ,XOXA . X X X . = OX( g e.h.u.t.s.s.q.-.*.] 9 (.rX9X~.'.8X9X].> uXuXuXuX",
"uXuXuXuXU ^.W oXeXtX2XL H.P.C.v.u.d.i.v.l.h.9.L 8X(.( eXtXyX:X* . X X X   R >Xu >.d.y.7.u.u.y.;.*.{ a Y 3XtX9X`.R _ F uXuXuXuXuX",
"uXuXuXuXuX! 3XtXrXrXoXL L.U.b.i.u.x.v.p.p.j. .{.3XD <XtXrXrXqXA   X X X . , <XY | d.a.y.a.i.i.>.o. .g m :XwXrXrX+XS uXuXuXuXuXuX",
"uXuXuXuXuXZ |.qXrX1XK $.E.Z.l.s.d.i.k.v.g.e.+.>XOXv 9XrXrXrX0XA . X X X X * ,X^.j p.d.s.s.i.h.<.X. .k r ( 2XeX2X` uXuXuXuXuXuXuX",
"uXuXuXuXuXuX> ).oX( v 3.Y.N.d.i.d.i.i.u.u.9.x 1X].* +XrXtXrX|.O . X X X . O >X'.g e.y.y.s.s.s.0.o. .k r D ^.oX^ uXuXuXuXuXuXuXuX",
"uXuXuXuXuXuXuXuX: R Y 5.K.c.s.s.d.d.d.d.j.9.u <X}.  - W `.W = . O o X X . = ,X(.g w.r.r.s.t.y.0.*.O.' 9 W D & uXuXuXuXuXuXuXuXuX",
"uXuXuXuXuXuXuXuXuXuX% D.L.l.u.d.d.d.d.d.d.9.u ,XOXo .       . o '.(.o X . , 2X/ j w.a.i.i.9.7.q.=.&.] 9 @ uXuXuXuXuXuXuXuXuXuXuX",
"uXuXuXuXuXuXuXuXuXuX1 F.J.f.u.a.d.d.d.a.j.6.9 OX2X- . X X X X X _ ~ o X   I <Xm | e.f.x.k.8.e.q.=.&.[ q uXuXuXuXuXuXuXuXuXuXuXuX",
"uXuXuXuXuXuXuXuXuXuXt @XS.p.m.f.s.x.g.i.d.q.a /.rXI   X X X X X X . X X o |.}.u ;.y.u.g.p.y.u.w.-.*.} p uXuXuXuXuXuXuXuXuXuXuXuX",
"uXuXuXuXuXuXuXuXuXuXt #Xn.7.l.k.d.f.a.a.s.e.' m 1XoXO X X X X X X X o   H >XK h ,.i.r.i.p.r.u.q.-.*...a uXuXuXuXuXuXuXuXuXuXuXuX",
"uXuXuXuXuXuXuXuXuXuXi #Xb.t.y.m.k.s.s.d.s.p.>.9 / 1XI   X X X . .   o H :X_ 9  .0.f.i.p.p.i.a.0.*.o...a uXuXuXuXuXuXuXuXuXuXuXuX",
"uXuXuXuXuXuXuXuXuXuXb #Xc.u.k.k.d.y.w.e.s.s.q.] y `.+XI * X . O , I }.,X`.y ' :.y.f.i.a.u.u.d.6.*.X...d uXuXuXuXuXuXuXuXuXuXuXuX",
"uXuXuXuXuXuXuXuXuXuXn $Xc.i.v.k.a.w.<.q.u.s.y.,.j y ~.oX X`.'.oX,X1X+X( y j =.6.a.8.8.u.u.a.s.<.*.o...d + uXuXuXuXuXuXuXuXuXuXuX",
"uXuXuXuXuXuXuXuXuXuXn $Xv.k.a.a.t.e.w.i.i.s.u.q.;.j 9 m Y ( /.(.^.R m 9 k o.<.i.a.e.e.7.q.p.u.:.o.X.[ d @ uXuXuXuXuXuXuXuXuXuXuX",
"uXuXuXuXuXuXuXuXuXuXn $Xv.v.k.i.7.8.i.d.u.s.s.u.w.>.{ j f p 9 9 9 a l O.>.6.e.a.u.t.i.0.w.s.w.-.X.X.[ d # uXuXuXuXuXuXuXuXuXuXuX",
"uXuXuXuXuXuXuXuXuXuXF $Xx.i.s.s.e.e.u.y.u.u.s.s.i.y.6.,.:.;.-.-.;.,.6.q.e.u.s.s.y.i.h.i.s.i.6.*.*.*.[ d # uXuXuXuXuXuXuXuXuXuXuX",
"uXuXuXuXuXuXuXuXuXuXN Q.g.8.s.u.8.,.,.9.e.i.e.r.a.d.8.q.p.e.t.s.u.7.8.y.e.y.s.s.u.i.p.y.w.0.:.o.o.&.{ f # uXuXuXuXuXuXuXuXuXuXuX",
"uXuXuXuXuXuXuXuXuXuXN H.v.t.d.6.-.o.X.*.>.e.r.8.f.d.y.0.,.:.,.q.a.r.w.0.>.:.,.q.y.q.<.:.-.=.&. .} X.] f # uXuXuXuXuXuXuXuXuXuXuX",
"uXuXuXuXuXuXuXuXuXuXM J.v.t.q.;.{  .O.X.&.:.6.y.i.e.<.;.&.{ X.-.<.0.>.=.O.o.O.;.>.;.&.*.*.X.X.X.X.o.] f # uXuXuXuXuXuXuXuXuXuXuX",
"uXuXuXuXuXuXuXuXuXuXM J.v.e.>.&.X.{ ] [ X.*.-.>.>.;.=.*.*.O.o.X.&.*.X.O.} [ { ..o.o...[ [ } X. .X.*.] f # uXuXuXuXuXuXuXuXuXuXuX",
"uXuXuXuXuXuXuXuXuXuXw b.l.6.-.o.' s 8 d ' o.*.&.&.*.X.} ..O.*...X.X.} [ { .... ...] l s 8 f ] X.&.*.] f # uXuXuXuXuXuXuXuXuXuXuX",
"uXuXuXuXuXuXuXuXuXuX< >.0.:.o.] 8 uXuXuX7 ' } o.o.{ l d f ] &.*...k d d l { O...' h 2 uXuX# q '  .&.[ f # uXuXuXuXuXuXuXuXuXuXuX",
"uXuXuXuXuXuXuXuXuXuX< ] ;.*.[ a + uXuXuXuX6 j { ] g < uX@ 8 ] } l 7 uXuX4 j ] ' h 2 uXuXuXuX$ f ' ] ' d @ uXuXuXuXuXuXuXuXuXuXuX",
"uXuXuXuXuXuXuXuXuXuX$ h [ ] a 3 uXuXuXuXuXuX2 p q $ uXuXuXuX8 d 6 uXuXuXuX< p q & uXuXuXuXuXuX< d k k a uXuXuXuXuXuXuXuXuXuXuXuX",
"uXuXuXuXuXuXuXuXuXuXuX4 8 2 1 uXuXuXuXuXuXuXuXuXuXuXuXuXuXuXuXuXuXuXuXuXuXuXuXuXuXuXuXuXuXuXuXuX# 4 5 & uXuXuXuXuXuXuXuXuXuXuXuX"
};
