/* XPM */
static char *result[] = {
/* columns rows colors chars-per-pixel */
"64 65 114 2 ",
"   c #7E522D",
".  c #73573F",
"X  c #7F5A3E",
"o  c #7E5B41",
"O  c #7F5D43",
"+  c #705D4D",
"@  c #776352",
"#  c #766454",
"$  c #6B6864",
"%  c #7D766F",
"&  c #737270",
"*  c #895C38",
"=  c #8C633E",
"-  c #815D43",
";  c #835E43",
":  c #866246",
">  c #886247",
",  c #866149",
"<  c #886348",
"1  c #8C674B",
"2  c #8E684C",
"3  c #8F6A4F",
"4  c #906743",
"5  c #956C45",
"6  c #916648",
"7  c #926A49",
"8  c #926B4D",
"9  c #916B4E",
"0  c #936A4E",
"q  c #926B4F",
"w  c #9B7049",
"e  c #8D6B53",
"r  c #826B5B",
"t  c #816E5D",
"y  c #846D5C",
"u  c #A77C43",
"i  c #80776F",
"p  c #AB9260",
"a  c #B6A56F",
"s  c #C59E4A",
"d  c #D89A4B",
"f  c #DC9D4F",
"g  c #CCA44F",
"h  c #D6AD51",
"j  c #D6B158",
"k  c #E2A24A",
"l  c #E6A34D",
"z  c #E4A54D",
"x  c #E3B755",
"c  c #FAC24F",
"v  c #F5C552",
"b  c #FBC350",
"n  c #FCC452",
"m  c #FBC754",
"M  c #FDD153",
"N  c #F6D25F",
"B  c #DBC57D",
"V  c #F4DA79",
"C  c #5B7B92",
"Z  c #5E7D91",
"A  c #5C7E93",
"S  c #5D8099",
"D  c #5F839C",
"F  c #7B878F",
"G  c #698493",
"H  c #62859E",
"J  c #6C8A9F",
"K  c #6F8C9F",
"L  c #6F8FA7",
"P  c #7F94A2",
"I  c #7C95A7",
"U  c #7797AD",
"Y  c #7796AE",
"T  c #7F96A8",
"R  c #7C9CB2",
"E  c #7E9EB5",
"W  c #7C9DB7",
"Q  c #839EB1",
"!  c #859FB1",
"~  c #89A3B7",
"^  c #82A1B8",
"/  c #82A3BC",
"(  c #80A3BE",
")  c #83A5BF",
"_  c #84A5BD",
"`  c #8AA4B8",
"'  c #8DA7BC",
"]  c #8CA8BF",
"[  c #F5E38F",
"{  c #85A7C1",
"}  c #87AAC6",
"|  c #8FA9C1",
" . c #8DAAC1",
".. c #89ADC8",
"X. c #8BAFCB",
"o. c #92ABC0",
"O. c #92ACC1",
"+. c #91AFC8",
"@. c #8DB1CD",
"#. c #8DB2CD",
"$. c #91B0C8",
"%. c #90B2CE",
"&. c #91B4CF",
"*. c #93B5D1",
"=. c #96B5D0",
"-. c #95B7D3",
";. c #96B9D4",
":. c #98BAD6",
">. c #9ABCD7",
",. c #9CBDD9",
"<. c #9EBEDA",
"1. c #9FC0DB",
"2. c #A1C1DD",
"3. c #2B2D42",
/* pixels */
"3.3.3.3.3.3.3.3.3.3.3.3.3.3.3.3.3.3.3.3.3.3.! o.o.o.o.o.o.o.! Z ! o.o.o.o.o.o.o.o.3.3.3.3.3.3.3.3.3.3.3.3.3.3.3.3.3.3.3.3.3.3.3.",
"3.3.3.3.3.3.3.3.3.3.3.3.3.3.3.3.3.3.3.3.3.` >.<.:.:.1.<.<.:.$.D $.1.-.:.>.<.,.=.>. .3.3.3.3.3.3.3.3.3.3.3.3.3.3.3.3.3.3.3.3.3.3.",
"3.3.3.3.3.3.3.3.3.3.3.3.3.3.3.3.3.3.3.3.` >.,.<.=.&.<.:.<.<.=.D X.>.,.,.X.<.<.,.<.,. .3.3.3.3.3.3.3.3.3.3.3.3.3.3.3.3.3.3.3.3.3.",
"3.3.3.3.3.3.3.3.3.3.3.3.3.3.3.3.3.3.3.` ,.1.=.<.<.,.*.=.*.%.=.D { %.<.<.:.,.,.1.:.:.1. .3.3.3.3.3.3.3.3.3.3.3.3.3.3.3.3.3.3.3.3.",
"3.3.3.3.3.3.3.3.3.3.3.3.3.3.3.3.3.Z L Y Y Y Y W ,.1.;.*.@.} *.D ..:.<.<.1.&.*.( Y Y Y Y L Z 3.3.3.3.3.3.3.3.3.3.3.3.3.3.3.3.3.3.",
"3.3.3.3.3.3.3.3.3.3.3.3.3.3.3.| +.H S S S S S S X.1.:.:.;.;.-.D { &.:.*.;.:.%.H C S S S S S R | 3.3.3.3.3.3.3.3.3.3.3.3.3.3.3.3.",
"3.3.3.3.3.3.3.3.3.3.3.3.3.3.` ;.-.&.*.*.:.&.&.H L <.;.&.} %...S W @.>.,.#.X.W S X.*.:.-.&.&.*.:._ 3.3.3.3.3.3.3.3.3.3.3.3.3.3.3.",
"3.3.3.3.3.3.3.3.3.3.3.3.3.` &.X.=.%.@.%.,.&.-.} D ) *.} X...} S ( @.&.X.} ( D / ;.@.<.&.@.X.-.X.%. .3.3.3.3.3.3.3.3.3.3.3.3.3.3.",
"3.3.3.3.3.3.3.3.3.3.3.T +.,.-.>.:...%.%.:.:.<.>.L L @.#.%.X.) S ) ..{ *.&.Y H -.<.:.>.%.*.} ;.>.-.<.$.I 3.3.3.3.3.3.3.3.3.3.3.3.",
"3.3.3.3.3.3.3.3.3.3.G L W W W W } &.,.,.&.%.>.1...C Y } ..%.W C Y } ) ..O.C ( 1.,.&.&.>.<.*...W W W W L J 3.3.3.3.3.3.3.3.3.3.3.",
"3.3.3.3.3.3.3.3.3.T L C C C C C W &.*.;.} %.%.>.Q & % % % & & & % % & & & $ P >.*.%.} -.-.&.) C C C C C H I 3.3.3.3.3.3.3.3.3.3.",
"3.3.3.3.3.3.3.3.3.O.;.#.*.&.&.W S &.=.{ X.,.>.Q & e q 9 1 X 1 3 3 3 O , 2 X + P :.<.@.} &.;.D L &.%.=.%.-.$.3.3.3.3.3.3.3.3.3.3.",
"3.3.3.3.3.3.3.3.I X.%.&.,.;.*.*.L Y >.*.*.<.Q & + 9 8 q 2 X 1 3 9 9 - : 9 6 o + P ,.;.*.,.W H @.-.*.,.&.&.%.! 3.3.3.3.3.3.3.3.3.",
"3.3.3.3.3.3.3.I $.X...%.;.>.>.1.( S X.;.P F % , ; 9 q q 2 o 1 3 8 8 - : 9 q 0 - $ F F =.=.H Y 1.,.>.:.#.X...%.! 3.3.3.3.3.3.3.3.",
"3.3.3.3.3.3.I ..-.%.>.,.;.&.>.<.>.H H P & e e , - 9 8 q 2 o 1 9 8 8 ; : q 8 q > O O + F L S -.<.,.&.-.,.,.&.*.$.K 3.3.3.3.3.3.3.",
"3.3.3.3.3.3.^ -...#.*.<.X.@.%.>.1./ & $ 3 0 0 > - 3 3 q 2 o 1 8 8 0 ; : 9 0 q < - 6 > + $ Y 1.,.&.@...,.-.&...*._ 3.3.3.3.3.3.3.",
"3.3.3.3.3.3.^ ....X.%.X.} X.$.,.&.F + < 3 0 8 > - 3 0 q 2 o 1 8 0 0 ; : 9 8 q < - 3 q < . & O.<.%.X.} ..%.X.X..._ 3.3.3.3.3.3.3.",
"3.3.3.3.3.3.^ @.#.....X.#...{ %.F e O > 9 9 8 : - 3 0 q 2 o 1 8 0 q ; : 8 8 9 < - 3 9 8 = . & $.} } %.X.} ..%.#._ 3.3.3.3.3.3.3.",
"3.3.3.3.3.3.U ..X.&.{ X.....} / % 3 o > q 9 8 : - 3 0 q 2 o 1 8 8 0 ; : 8 0 9 < O 3 8 9 4   + Q } X.} @.( &.X.X.R 3.3.3.3.3.3.3.",
"3.3.3.3.3.3.Z S D D S D D D D S & 3 o > q 9 8 : - 3 0 q 2 o 1 8 8 3 ; : 8 8 9 < O 3 8 9 4   + C D D S D S D D S A 3.3.3.3.3.3.3.",
"3.3.3.3.3.3.U { / ) { { { { / Q % 3 o > q 8 8 : - 3 0 q 2 o 1 8 q 0 ; : 9 8 q < O 3 8 8 6   + Y ) { { { { ) ) { R 3.3.3.3.3.3.3.",
"3.3.3.3.3.3.] 2.-.-.<.:.;.-.:.} % 3 o > q 0 8 : - 3 0 q 2 o 1 8 q 0 ; : 9 8 q < O 3 8 0 6   + ~ ;.:.-.>.,.:.&.2.+.3.3.3.3.3.3.3.",
"3.3.3.3.3.3.] 1.:.>.;.%.....;.} % 3 o > q 8 8 , - 3 0 q 2 o 1 8 8 q ; : 9 8 q < O 3 8 8 6   + ~ -.@.} %.=.>.:.2.+.3.3.3.3.3.3.3.",
"3.3.3.3.3.3.] <.*.*.,.,.;.;.:.$.% 3 o > q 8 8 , - 3 0 q 2 o 1 8 8 8 ; : 9 8 q < O 3 8 8 6   + ' :.;.-.>.>.-.&.<.+.3.3.3.3.3.3.3.",
"3.3.3.3.3.3.] <.%.} :.:.&.X.%.O.% 3 o > q 8 8 , - 3 0 q 2 o 1 8 8 8 ; : 9 8 q < O 3 8 8 6   + ~ *...%.-.>.} @.>.+.3.3.3.3.3.3.3.",
"3.3.3.3.3.3.] :.@...} @.X.X.} { % 3 o > q 8 8 , - 3 0 q 2 o 1 8 8 8 ; : 9 8 q < O 3 8 8 1   + Q ..X.X.@.....#.-.+.3.3.3.3.3.3.3.",
"3.3.3.3.3.3.] ..} #.X.....@.#.{ % 3 o , q 0 0 , - 3 0 q 2 o 1 8 0 3 ; , 9 9 9 < O 3 0 0 4   + ~ #.#.....X.#...} +.3.3.3.3.3.3.3.",
"3.3.3.3.3.3.E { ..} #.( @.@.X.W i w = 5 w w w 5 = w w w 5 = 5 w w w 4 4 w w w 5 = w w w 5 * + Y X.@.&.( @.} X.{ _ 3.3.3.3.3.3.3.",
"3.3.3.3.3.3.Z S D S D S D D D C p z k k l l l k k l l l z k l l l l k z z z z z k l l l z k p C D D D S D S D D A 3.3.3.3.3.3.3.",
"3.3.3.3.3.3.U / ) { { { ) ( { Q a m m m m m m m m m m m m m m m m m m m m m m m m m m m m m j Q { / ) { { { { ( R 3.3.3.3.3.3.3.",
"3.3.3.3.3.3.^ -.>.*.>.>.,.@.2.=.p g s s g g g g s g g g g s g g g g s s g g g g s g g g g s p O.2.&.>.>.>.-.:.;._ 3.3.3.3.3.3.3.",
"3.3.3.3.3.3.^ *.&.} *.&.<.;.1.=.i 2 X : 7 7 7 : X 7 7 7 4 X 1 7 7 7 - : 7 7 7 : X 7 7 7 4   + O.1.;.>.*.&.} @.-._ 3.3.3.3.3.3.3.",
"3.3.3.3.3.3.^ :.;.-.>.,.;.&.,.=.i 3 O < 8 0 q > - 9 9 q 1 o 1 q q 8 - : 9 0 0 < O 3 0 0 6   + O.<.&.-.<.,.;.:.:. .3.3.3.3.3.3.3.",
"3.3.3.3.3.3.^ -...%.*.<...X.:.=.i 3 O < 8 0 q > - 9 9 q 1 o 2 0 0 8 - : 9 0 8 < O 3 0 0 6   + O.>.@.} >.-.%.X.=._ 3.3.3.3.3.3.3.",
"3.3.3.3.3.3.E } ..X.%.X.} @.*.=.% 3 O < 8 0 q > - 9 q q 1 o 2 0 0 0 - : 9 0 8 < O 3 0 0 6   + O.-.X.} ..%.X.X.} _ 3.3.3.3.3.3.3.",
"3.3.3.3.3.3.E X.@.....@.@...{ $.i 3 O < 8 q 8 > - 9 8 q 1 o 2 0 0 9 - : 9 0 0 < O 3 0 0 6   + ' } } %.@.....#.@._ 3.3.3.3.3.3.3.",
"3.3.3.3.3.3.U ..X.*.{ X.....} / % 3 O > q 8 8 : ; 9 8 q 1 o 2 8 9 9 ; : 8 0 0 > O 3 0 0 6   + Q } X.} @.) *.#...R 3.3.3.3.3.3.3.",
"3.3.3.3.3.3.Z S D H S D S S H S & 3 O > q 8 8 : ; 9 8 q 1 o 2 8 8 9 ; > 8 9 q > 5 p p w 6   + C D D S D S D D D A 3.3.3.3.3.3.3.",
"3.3.3.3.3.3.U ) / ( { { ) { ) W % 3 O > q 8 8 : ; 9 8 q 1 o 2 0 0 9 ; > 9 9 0 u x N V j 5   + Y ( { { { { ) ( ) R 3.3.3.3.3.3.3.",
"3.3.3.3.3.3.| 2.-.-.<.>.;.;.:.} % 3 O > q 8 8 : ; 9 8 q 1 o 2 0 0 8 ; > 9 9 4 h M M N [ p   + ~ ;.:.;.:.,.:.&.2.+.3.3.3.3.3.3.3.",
"3.3.3.3.3.3.| 1.>.:.:.%.X...-.} % 3 O > q 8 8 > ; q 8 q 1 o 1 8 8 q ; > 8 3 = h M M N [ p   + ~ -.X.} &.=.>.:.1.+.3.3.3.3.3.3.3.",
"3.3.3.3.3.3.| <.=.*.,.,.;.:.:.$.i 3 O > q 8 8 > ; q 8 q 1 o 1 9 8 q ; > 9 9 * u v M V B w   + ' :.;.;.,.<.-.&.<.+.3.3.3.3.3.3.3.",
"3.3.3.3.3.3.| <.%.} :.:.%.X.#...% 3 O > q 8 8 > ; q 8 q 1 o 1 9 8 0 ; > 9 9 2 * u s a u 6   + ~ *...#.-.>...#.>.+.3.3.3.3.3.3.3.",
"3.3.3.3.3.3.| :.@...} @.X.X.} ) % 3 O > q 8 8 > ; q 8 q 1 o 1 9 8 0 ; < 9 9 q < X = 1 3 6   + Q ..X.X.#...} @.;.+.3.3.3.3.3.3.3.",
"3.3.3.3.3.3.| ..{ %.X.X.} @.@.{ % 3 O > 8 8 8 : ; 9 8 q 1 X 1 8 8 3 ; : 8 9 9 < O 2 3 0 6   + ~ #.#.....X.%.} } +.3.3.3.3.3.3.3.",
"3.3.3.3.3.3.E { ..} @.( @.#.X.W i 5 * 4 w w w 4 = w w w 7 * 7 w w 5 = 4 w w w 4 * 5 5 w 5   + Y X.@.&.) @.} ..{ _ 3.3.3.3.3.3.3.",
"3.3.3.3.3.3.Z D H S H D H D H C p f d f f f f d d f f f f d f f f f d d f f f d d f f f f d p C D H H S H S D D A 3.3.3.3.3.3.3.",
"3.3.3.3.3.3.U ) { { ) { ) / { Q a n n b c c b b n c c c b n n n n n n b b n b b b b b b b v j P { / ) { { { { ( R 3.3.3.3.3.3.3.",
"3.3.3.3.3.3.E *.>.*.:.:.,.@.2.=.a j h h j j j h h j j j j h j j j j h h j j j h h j j j h g p O.2.&.:.>.>.-.>.-._ 3.3.3.3.3.3.3.",
"3.3.3.3.3.3.^ *.*.} *.&.<.-.<.=.i 8 ; = 5 5 5 = ; 5 5 5 4 X 4 5 5 5 ; = 5 5 5 = ; 7 5 5 4   + O.1.;.,.*.&.} #.-._ 3.3.3.3.3.3.3.",
"3.3.3.3.3.3.^ :.:.;.,.,.:.%.>.=.i 3 O > 8 0 0 > - 3 0 0 1 o 1 q 8 9 ; : 8 0 0 < O 3 0 0 6   + O.<.&.;.,.>.-.;.:. .3.3.3.3.3.3.3.",
"3.3.3.3.3.3.^ -...@.*.,.X.X.:.=.i 3 O < 8 q 0 > - 3 0 8 1 o 1 q 8 9 ; : 8 9 8 < O 3 0 0 6   + O.,.@...,.-.%...*._ 3.3.3.3.3.3.3.",
"3.3.3.3.3.3.E } ..X.@.X.} X.*.=.i 3 O < q 0 0 > - 9 q 8 1 o 1 8 8 9 ; : 9 9 9 < O 3 8 0 6   + O.;.@.} ..@.X...} _ 3.3.3.3.3.3.3.",
"3.3.3.3.3.3.E X.@...} X.#.X.{ $.i 3 O > q 0 q > - 3 0 q 1 o 1 8 8 9 ; > q 9 9 < O 3 q q 6   + ' } } @.X...} #.X._ 3.3.3.3.3.3.3.",
"3.3.3.3.3.3.U ..X.&.) ......} / % 3 O > q 8 8 > - 3 0 8 1 o 1 8 8 9 ; : 8 8 8 < O 3 8 8 6   + Q } X.} @.( *.@...R 3.3.3.3.3.3.3.",
"3.3.3.3.3.3.Z D D D D D D D D C & 3 O > q 8 8 > - 3 0 8 1 o 1 8 8 9 ; : 8 8 8 < O 3 8 8 6   + C D D D D D H D D A 3.3.3.3.3.3.3.",
"3.3.3.3.3.3.U { / ) ) ) { ) ( W % 3 O > q 8 8 > - 3 8 8 1 o 1 8 8 8 ; : 8 8 8 < O 3 8 8 6   + Y ( ) { { { ) ( ) R 3.3.3.3.3.3.3.",
"3.3.3.3.3.3.] 2.-.-.<.>.;.;.:.} % 3 O > q 8 8 > - 9 8 8 1 o 1 8 8 9 ; : 8 8 8 < O 3 8 8 6   + ~ ;.:.-.>.<.:.&.2.+.3.3.3.3.3.3.3.",
"3.3.3.3.3.3.] 1.>.>.:.%.X.X.;.} % 3 O > q 8 8 > - 9 8 8 1 o 1 8 8 9 ; : 8 8 9 < O 3 0 0 6   + ~ -.@.} &.-.>.;.2.+.3.3.3.3.3.3.3.",
"3.3.3.3.3.3.] <.*.=.,.,.;.:.:.$.% 3 O > q 8 8 > - 9 q 8 1 o 1 8 8 9 ; : 8 8 9 < O 3 0 0 6   + ' >.:.;.<.,.-.&.<.+.3.3.3.3.3.3.3.",
"3.3.3.3.3.3.] ,.%...:.:.%.X.%...% 3 O > q 8 8 > - 9 0 8 1 o 1 8 8 9 ; : 8 8 9 < O 3 0 0 6   + ~ *.X.%.;.>...#.,.+.3.3.3.3.3.3.3.",
"3.3.3.3.3.3.] :.@.....@.X.X.} { % 3 O > q 8 8 > - 9 0 8 1 o 1 8 8 9 ; : 8 8 9 < O 3 8 0 6   + Q } X.X.#.....@.;.+.3.3.3.3.3.3.3.",
"3.3.3.3.3.3.] ..} #.X.X.} X.@.{ % 3 - < 8 8 8 > - 3 0 9 1 X 1 8 8 0 ; : 9 8 8 < - 3 0 0 6   + ~ @.@.....X.#.} }  .3.3.3.3.3.3.3.",
"3.3.3.3.3.3.E { } { X.) @.@.X.Q % e O < e 9 e < O e e e 1 o 1 e e e O : e e e < O e e q 2   + Y ....%.) X.} ..{ R 3.3.3.3.3.3.3.",
"3.3.3.3.3.3.G K J J J J J J J G t t # # t t t # # t y y r @ r y r r @ @ y r y @ @ y y y t # # G J J J J J J J K J 3.3.3.3.3.3.3."
};
