/* XPM */
static char *result[] = {
/* columns rows colors chars-per-pixel */
"64 64 99 2 ",
"   c #000001",
".  c #010001",
"X  c #010101",
"o  c #000201",
"O  c #020301",
"+  c #000102",
"@  c #010102",
"#  c #010103",
"$  c #010202",
"%  c #010302",
"&  c #030203",
"*  c #050503",
"=  c #010304",
"-  c #020204",
";  c #060A04",
":  c #0B0808",
">  c #0A1106",
",  c #0B1708",
"<  c #0C1A08",
"1  c #0C1C08",
"2  c #102409",
"3  c #14270D",
"4  c #132B0C",
"5  c #14290E",
"6  c #1A370F",
"7  c #1A3312",
"8  c #1A3611",
"9  c #1D3D12",
"0  c #202E1A",
"q  c #26371E",
"w  c #312221",
"e  c #392725",
"r  c #422F29",
"t  c #442C2B",
"y  c #442E2B",
"u  c #413426",
"i  c #214513",
"p  c #224216",
"a  c #244914",
"s  c #284F16",
"d  c #224218",
"f  c #295516",
"g  c #2C5E14",
"h  c #2E5B18",
"j  c #2D6214",
"k  c #316B16",
"l  c #33671B",
"z  c #357518",
"x  c #3A7B1E",
"c  c #2F4022",
"v  c #3C4F21",
"b  c #4C7134",
"n  c #5B6743",
"m  c #3E8122",
"M  c #3F8921",
"N  c #4C842F",
"B  c #4D8B2A",
"V  c #469425",
"C  c #459922",
"Z  c #499F27",
"A  c #479029",
"S  c #4B992A",
"D  c #4DAF26",
"F  c #4DA42A",
"G  c #4DA828",
"H  c #4FAB2A",
"J  c #4FAD29",
"K  c #50AF28",
"L  c #4DB026",
"P  c #4CB126",
"I  c #4EB027",
"U  c #4FB127",
"Y  c #4EB326",
"T  c #4DB028",
"R  c #56B130",
"E  c #61B73B",
"W  c #69964A",
"Q  c #798B59",
"!  c #70BC4D",
"~  c #7ABA5B",
"^  c #7EC858",
"/  c #8F986B",
"(  c #82C064",
")  c #8FCA6A",
"_  c #8DCF68",
"`  c #91CF6C",
"'  c #94D170",
"]  c #A57787",
"[  c #D27FB5",
"{  c #D77EBB",
"}  c #A29181",
"|  c #BD87A1",
" . c #AADC8D",
".. c #AECAA2",
"X. c #C5DCBC",
"o. c #CFE3C6",
"O. c #E4F2DE",
"+. c #FBFEF9",
"@. c #2B2D42",
/* pixels */
"@.@.@.@.@.@.@.@.@.@.@.@.@.@.@.@.@.@.@.@.@.@.@.@.@.@.@.@.@.@.@.@.@.@.@.@.@.@.@.@.@.@.@.@.@.@.@.@.@.@.@.@.@.@.@.@.@.@.@.@.@.@.@.@.",
"@.@.@.@.@.@.@.@.@.@.@.@.@.@.@.@.@.@.@.@.@.@.@.@.@.@.@.@.@.@.@.@.@.@.@.@.@.@.@.@.@.@.@.@.@.@.@.@.@.@.@.@.@.@.@.@.@.@.@.@.@.@.@.@.",
"@.@.@.@.@.@.@.@.@.@.@.@.@.@.@.@.@.@.@.@.@.@.@.@.@.@.@.@.@.@.@.@.@.@.@.@.@.@.@.@.@.@.@.@.@.@.@.@.@.@.@.@.@.@.@.@.@.@.@.@.@.@.@.@.",
"@.@.@.@.@.@.@.@.@.@.@.@.@.@.@.@.@.@.@.@.@.@.@.@.@.@.@.@.@.@.@.@.@.@.@.@.@.@.@.@.@.@.@.@.@.@.@.@.@.@.@.@.@.@.@.@.@.@.@.@.@.@.@.@.",
"@.@.@.@.@.@.@.@.@.@.@.@.@.@.@.@.@.@.@.@.@.@.@.@.@.@.@.@.@.@.@.@.@.@.@.@.@.@.@.@.@.@.@.@.@.@.@.@.@.@.@.@.@.@.@.@.@.@.@.@.@.@.@.@.",
"@.@.@.@.@.@.@.@.@.@.@.@.@.@.@.@.@.@.@.@.@.@.@.@.@.@.@.@.@.@.@.@.@.@.@.@.@.@.@.@.@.@.@.@.@.@.@.@.@.@.@.@.@.@.@.@.@.@.@.@.@.@.@.@.",
"@.@.@.@.@.@.@.@.@.@.@.@.@.@.@.@.@.@.@.@.@.@.@.@.@.@.@.@.@.@.@.@.@.@.@.@.@.@.@.@.@.@.@.@.@.@.@.@.@.@.@.@.@.@.@.@.@.@.@.@.@.@.@.@.",
"@.@.@.@.@.@.@.@.@.@.@.@.@.@.@.@.@.@.@.@.@.@.@.@.@.@.@.@.@.@.@.@.@.@.@.@.@.@.@.@.@.@.@.@.@.@.@.@.@.@.@.@.@.@.@.@.@.@.@.@.@.@.@.@.",
"@.@.@.@.@.@.@.@.@.@.@.@.@.@.@.@.@.@.@.@.@.@.@.@.@.@.@.@.@.@.@.@.@.@.@.@.@.@.@.@.@.@.@.@.@.@.@.@.@.@.@.@.@.@.@.@.@.@.@.@.@.@.@.@.",
"@.@.@.@.@.@.@.@.@.@.@.@.@.@.@.@.@.@.@.@.@.@.@.@.@.@.@.@.@.@.@.@.@.@.@.@.@.@.@.@.@.@.@.@.@.@.@.@.@.@.@.@.@.@.@.@.@.@.@.@.@.@.@.@.",
"@.@.@.@.@.@.@.@.@.@.@.@.@.@.@.@.@.@.@.@.@.@.@.@.@.@.@.@.@.@.@.@.@.@.@.@.@.@.@.@.@.@.@.@.@.@.@.@.@.@.@.@.@.@.@.@.@.@.@.@.@.@.@.@.",
"@.@.@.@.@.@.@.@.@.@.@.@.@.@.@.@.@.@.@.@.@.@.@.@.@.@.@.@.@.@.@.@.@.@.@.@.@.@.@.@.@.@.@.@.@.@.@.@.@.@.@.@.@.@.@.@.@.@.@.@.@.@.@.@.",
"@.@.@.@.@.@.@.@.@.@.@.@.@.@.@.@.@.@.@.@.@.@.@.@.@.@.@.@.@.@.@.@.@.@.@.@.@.@.@.@.@.@.@.@.@.@.@.@.@.@.@.@.@.@.@.@.@.@.@.@.@.@.@.@.",
"@.@.@.@.@.@.@.@.@.@.@.@.@.@.@.@.@.@.@.@.@.@.@.@.@.@.@.@.@.@.@.@.@.@.@.@.@.@.@.@.@.@.@.@.@.@.@.@.@.@.@.@.@.@.@.@.@.@.@.@.@.@.@.@.",
"@.@.@.@.@.@.@.@.@.@.@.@.@.@.@.@.@.@.@.@.@.@.@.@.@.@.@.@.@.@.@.@.@.@.@.@.@.@.@.@.@.@.@.@.@.@.@.@.@.@.@.@.@.@.@.@.@.@.@.@.@.@.@.@.",
"@.@.@.@.@.@.@.@.@.@.@.@.@.@.@.@.@.@.@.@.@.@.@.@.@.@.@.@.@.@.@.@.@.@.@.@.@.@.@.@.@.@.@.@.@.@.@.@.@.@.@.@.@.@.@.@.@.@.@.@.@.@.@.@.",
"@.@.@.@.@.@.@.@.@.@.@.@.@.@.@.@.@.@.@.@.@.@.@ X X X X X X X X X X X X X X X X X X X & @.@.@.@.@.@.@.@.@.@.@.@.@.@.@.@.@.@.@.@.@.",
"@.@.@.@.@.@.@.@.@.@.@.@.@.@.@.@.@.@.@.@.@.@.O                                       o @.@.@.@.@.@.@.@.@.@.@.@.@.@.@.@.@.@.@.@.@.",
"@.@.@.@.@.@.@.@.@.@.@.@.@.@.@.@.@.@.@.@.@.5 6 6 6 6 6 9 c c c c c c c c c 6 6 6 6 6 8 @.@.@.@.@.@.@.@.@.@.@.@.@.@.@.@.@.@.@.@.@.",
"@.@.@.@.@.@.@.@.@.@.@.@.@.@.@.@.@.@.@.X X p G J J J H E ) ) ) ) ) ) ) ) ^ H J H H H V 1 X o @.@.@.@.@.@.@.@.@.@.@.@.@.@.@.@.@.@.",
"@.@.@.@.@.@.@.@.@.@.@.@.@.@.@.@.@.@.@.    9 J I I I D E _ ` ` ` ` ` ` ' ^ R L L L U S <   % @.@.@.@.@.@.@.@.@.@.@.@.@.@.@.@.@.@.",
"@.@.@.@.@.@.@.@.@.@.@.@.@.@.@.@.@.@.5 6 7 j J I I I D E _ ` _ ` ` ` ` ` ) E E E U P Z i 6 8 @.@.@.@.@.@.@.@.@.@.@.@.@.@.@.@.@.@.",
"@.@.@.@.@.@.@.@.@.@.@.@.@.@.@.@.X . i H H D D I I I D E _ ` _ ` ` ` ` ` _ _ ` ^ R K K H J S 1 . % @.@.@.@.@.@.@.@.@.@.@.@.@.@.@.",
"@.@.@.@.@.@.@.@.@.@.@.@.@.@.@.@.    i K T P K I I I D E _ ` ` ` ` ` ` ` ` ` ` ) R D D L U Z 1   $ @.@.@.@.@.@.@.@.@.@.@.@.@.@.@.",
"@.@.@.@.@.@.@.@.@.@.@.@.@.@.@.+     i K L I L I I I D E ^ ^ ^ _ ` ` ` ` ` ` _ _ ! ! E U I Z <   $ @.@.@.@.@.@.@.@.@.@.@.@.@.@.@.",
"@.@.@.@.@.@.= O X X X X X X X .     i K L K P I I I I D L L E _ ` ` ` ` ` ` _ '  . . .R P Z <     . X X X . $ @.@.@.@.@.@.@.@.@.",
"@.@.@.@.@.@.=                       i J P I T I I I I I L D E _ ` ` ` ` ` ` ` '  . . .R L Z <               @ @.@.@.@.@.@.@.@.@.",
"@.@.@.@.@.@.0 c c 7 1 1 1 1 1 1 1 < f J L L T I I I I L I L R ^ ^ ^ ^ ^ ^ ^ ^ ^ ' ' _ R I Z <   * < 2 2 q c c @.@.@.@.@.@.@.@.@.",
"@.@.@.= . X n ) ) W h h h h h g h h x D T L I I I I L L I P L K K K K K K K K K K K K K I Z <   ; s l k ~ ) ( q X $ @.@.@.@.@.@.",
"@.@.@.+     b ' ' W g g g g g g g g x D I T T I I I I T K T P Y U U P U P K P P Y Y U P I Z <   ; f l k ~ ' ) q   @ @.@.@.@.@.@.",
"@.@.@.+     b ^ ^ W n n n n n b z z M T L T P I I I I L I P F m m M J P T I P G M m M H P Z <   ; l x m ! ^ ! 7   @ @.@.@.@.@.@.",
"@.@.@.+     h R K / [ [ [ [ [ } J D J P T I L I I I I L P U M > * 4 F U P P Y V 1 * 2 S Y Z <   > A D D U U F 4   @ @.@.@.@.@.@.",
"@.@.@.+     g Y P / { { { { { } P P L I T L I I I I I P P U M ;   4 F I I T U C >   < S U Z <   > A U I I U G 4   @ @.@.@.@.@.@.",
"@.@.@.+     s C C W } } | { [ } K K I K I L I I I I I L P U M ;   4 F P L K I C >   < S Y Z <   > m C C C C V 4   @ @.@.@.@.@.@.",
"@.@.@.+     7 j g m J H / [ { } D T I I I I I I I I I L L U M ;   4 F I I L I C >   < S Y Z <   ; f k k k k j 1   @ @.@.@.@.@.@.",
"@.@.@.+   O 7 j j M K P / [ { } J I I I I I I I I I I I T U M ;   2 F T I T Y V >   < S Y Z <   ; f l l k k j <   X @.@.@.@.@.@.",
"@.@.@.@.X X 3 p p k C C Q ] ] Q K P I I I I I I I I I I T U V 9 7 s F K I T P Z i 7 i Z Y Z <   ; f k l s a a , X - @.@.@.@.@.@.",
"@.@.@.@.@.@.= * O 7 j j j h h m P L P I I I I I I I T L I I J H H H T P L K P D H H H P P Z <   ; f k j 1 * $ @.@.@.@.@.@.@.@.@.",
"@.@.@.@.@.@.=     4 j j j j g m U U Y P I K P I I I I I I I L L P I T I I I I I I P I L U Z <   ; f k j <   @ @.@.@.@.@.@.@.@.@.",
"@.@.@.@.@.@.@.# X 3 i i i i i h x x A T P K L I I I I I I I I I I I I I I I I I I I I I U Z <   ; 9 a a , X - @.@.@.@.@.@.@.@.@.",
"@.@.@.@.@.@.@.@.@.@.* O O O O O * O a J P I I I I I I I I I I I I I I I I I I I I I I I U Z <     O O $ @.@.@.@.@.@.@.@.@.@.@.@.",
"@.@.@.@.@.@.@.@.@.@.                i I U T I I I I I I I I I D D D U U U U U U D D D I U Z <       O @ @.@.@.@.@.@.@.@.@.@.@.@.",
"@.@.@.@.@.@.@.@.@.@.# # # # X &     9 C C Z L I I I I I I L R ( ( ~ S C C C C Z ~ ( ~ R P Z <   X : # - @.@.@.@.@.@.@.@.@.@.@.@.",
"@.@.@.@.@.@.@.@.@.@.@.@.@.@.@.@.    2 j j x L P L L P P L D ! O.+.X.l j j j j b O.+.O.E P Z <   $ @.@.@.@.@.@.@.@.@.@.@.@.@.@.@.",
"@.@.@.@.@.@.@.@.@.@.@.@.@.@.@.@.    2 g g x I U U U U P I P ! +.+.o.l g g g h b O.+.O.E Y Z 1   $ @.@.@.@.@.@.@.@.@.@.@.@.@.@.@.",
"@.@.@.@.@.@.@.@.@.@.@.@.@.@.@.@.# X 3 i i j C C C C C Z K D ! X.o...x z z z z N ..X...B m x , # - @.@.@.@.@.@.@.@.@.@.@.@.@.@.@.",
"@.@.@.@.@.@.@.@.@.@.@.@.@.@.@.@.@.@.@.; O 2 j j j j j z H I P R R R D D J D D F z k h < ; % @.@.@.@.@.@.@.@.@.@.@.@.@.@.@.@.@.@.",
"@.@.@.@.@.@.@.@.@.@.@.@.@.@.@.@.@.@.@.*   2 g j j g g z J U Y L L I I I T Y U G k k h >   % @.@.@.@.@.@.@.@.@.@.@.@.@.@.@.@.@.@.",
"@.@.@.@.@.@.@.@.@.@.@.@.@.@.@.@.@.@.= *   < p i f z z x B B A J I I I I G A B m s s p ;   % @.@.@.@.@.@.@.@.@.@.@.@.@.@.@.@.@.@.",
"@.@.@.@.@.@.@.@.@.@.@.@.@.@.@.@.X @ X     O * O 9 G I B u r v H I I I U S c r e ; * *     % @.@.@.@.@.@.@.@.@.@.@.@.@.@.@.@.@.@.",
"@.@.@.@.@.@.@.@.@.@.@.@.@.@.@.@.                6 D U B u t v H Y U U U S u t e *         % @.@.@.@.@.@.@.@.@.@.@.@.@.@.@.@.@.@.",
"@.@.@.@.@.@.@.@.@.@.@.@.@.@.@.5 6 6 6 7 6 4 1 < a D U B u t c N B B B B b u y e *   ; 7 6 8 @.@.@.@.@.@.@.@.@.@.@.@.@.@.@.@.@.@.",
"@.@.@.@.@.@.@.@.@.@.@.@.@.X X a H H H G J A g h z D U B u y y u u u u u u y y e *   < V K S 1 X % @.@.@.@.@.@.@.@.@.@.@.@.@.@.@.",
"@.@.@.@.@.@.@.@.@.@.@.@.@.O   a K I P U Y V j g z T Y B u y t t y y y y t t r e *   < S Y Z <   $ @.@.@.@.@.@.@.@.@.@.@.@.@.@.@.",
"@.@.@.@.@.@.@.@.@.@.@.@.@.    a U P G C C m j g k B B b u t r y t t t t y r r e *   < M Z M <   $ @.@.@.@.@.@.@.@.@.@.@.@.@.@.@.",
"@.@.@.@.@.@.@.@.@.@.@.@.@.    a K K V j j j g j v u u r r t t y y y y r y t y e *   > g k g >   $ @.@.@.@.@.@.@.@.@.@.@.@.@.@.@.",
"@.@.@.@.@.@.@.@.@.@.@.@.@.O   a Y Y V j j j j j v r y y r t t y y y t y y t y e *   > h k g >   $ @.@.@.@.@.@.@.@.@.@.@.@.@.@.@.",
"@.@.@.@.@.@.@.@.@.@.@.@.@.# # d m m l i i i i i c y t y r t t w w w t t y t y e *   ; p s a , # - @.@.@.@.@.@.@.@.@.@.@.@.@.@.@.",
"@.@.@.@.@.@.@.@.@.@.@.@.@.@.@.@.; * * O O O * * > t r y y y w *   ; t r y t y e *     * * % @.@.@.@.@.@.@.@.@.@.@.@.@.@.@.@.@.@.",
"@.@.@.@.@.@.@.@.@.@.@.@.@.@.@.@.                > y y y y y w O   ; t y y y y e *         % @.@.@.@.@.@.@.@.@.@.@.@.@.@.@.@.@.@.",
"@.@.@.@.@.@.@.@.@.@.@.@.@.@.@.@.# # # # # # # # : w w w w w w O   * w w w w w w # # # # # - @.@.@.@.@.@.@.@.@.@.@.@.@.@.@.@.@.@.",
"@.@.@.@.@.@.@.@.@.@.@.@.@.@.@.@.@.@.@.@.@.@.@.@.@.. O O O O O       O O O O O & @.@.@.@.@.@.@.@.@.@.@.@.@.@.@.@.@.@.@.@.@.@.@.@.",
"@.@.@.@.@.@.@.@.@.@.@.@.@.@.@.@.@.@.@.@.@.@.@.@.@.                            & @.@.@.@.@.@.@.@.@.@.@.@.@.@.@.@.@.@.@.@.@.@.@.@.",
"@.@.@.@.@.@.@.@.@.@.@.@.@.@.@.@.@.@.@.@.@.@.@.@.@.X # # # # # # # # # # # # # + @.@.@.@.@.@.@.@.@.@.@.@.@.@.@.@.@.@.@.@.@.@.@.@."
};
