/* XPM */
static char *result[] = {
/* columns rows colors chars-per-pixel */
"64 64 59 1 ",
"  c #000001",
". c #010001",
"X c #010102",
"o c #010202",
"O c #020202",
"+ c #050503",
"@ c #020204",
"# c #060A04",
"$ c #070D06",
"% c #0B0808",
"& c #0A1106",
"* c #0B1708",
"= c #0C1A08",
"- c #11270A",
"; c #172F0F",
": c #1A3312",
"> c #1C3811",
", c #342422",
"< c #432D2A",
"1 c #413426",
"2 c #224613",
"3 c #224218",
"4 c #2F4F1A",
"5 c #2C5917",
"6 c #2C5E14",
"7 c #2D6214",
"8 c #316B16",
"9 c #33671B",
"0 c #37781A",
"q c #2F4022",
"w c #4C7134",
"e c #5B6743",
"r c #408123",
"t c #478B26",
"y c #459822",
"u c #4B992A",
"i c #4AA027",
"p c #4EAE27",
"a c #4EAA29",
"s c #50AF28",
"d c #4EB027",
"f c #4CB226",
"g c #50B129",
"h c #61B73B",
"j c #69964A",
"k c #798B59",
"l c #74BB53",
"z c #7FC75A",
"x c #8F986B",
"c c #8FCA6A",
"v c #91D06C",
"b c #A57787",
"n c #D37FB7",
"m c #A29181",
"M c #AADC8D",
"N c #BAD4B0",
"B c #DEEED7",
"V c #FBFEF9",
"C c #2B2D42",
/* pixels */
"CCCCCCCCCCCCCCCCCCCCCCCCCCCCCCCCCCCCCCCCCCCCCCCCCCCCCCCCCCCCCCCC",
"CCCCCCCCCCCCCCCCCCCCCCCCCCCCCCCCCCCCCCCCCCCCCCCCCCCCCCCCCCCCCCCC",
"CCCCCCCCCCCCCCCCCCCCCCCCCCCCCCCCCCCCCCCCCCCCCCCCCCCCCCCCCCCCCCCC",
"CCCCCCCCCCCCCCCCCCCCCCCCCCCCCCCCCCCCCCCCCCCCCCCCCCCCCCCCCCCCCCCC",
"CCCCCCCCCCCCCCCCCCCCCCCCCCCCCCCCCCCCCCCCCCCCCCCCCCCCCCCCCCCCCCCC",
"CCCCCCCCCCCCCCCCCCCCCCCCCCCCCCCCCCCCCCCCCCCCCCCCCCCCCCCCCCCCCCCC",
"CCCCCCCCCCCCCCCCCCCCCCCCCCCCCCCCCCCCCCCCCCCCCCCCCCCCCCCCCCCCCCCC",
"CCCCCCCCCCCCCCCCCCCCCCCCCCCCCCCCCCCCCCCCCCCCCCCCCCCCCCCCCCCCCCCC",
"CCCCCCCCCCCCCCCCCCCCCCCCCCCCCCCCCCCCCCCCCCCCCCCCCCCCCCCCCCCCCCCC",
"CCCCCCCCCCCCCCCCCCCCCCCCCCCCCCCCCCCCCCCCCCCCCCCCCCCCCCCCCCCCCCCC",
"CCCCCCCCCCCCCCCCCCCCCCCCCCCCCCCCCCCCCCCCCCCCCCCCCCCCCCCCCCCCCCCC",
"CCCCCCCCCCCCCCCCCCCCCCCCCCCCCCCCCCCCCCCCCCCCCCCCCCCCCCCCCCCCCCCC",
"CCCCCCCCCCCCCCCCCCCCCCCCCCCCCCCCCCCCCCCCCCCCCCCCCCCCCCCCCCCCCCCC",
"CCCCCCCCCCCCCCCCCCCCCCCCCCCCCCCCCCCCCCCCCCCCCCCCCCCCCCCCCCCCCCCC",
"CCCCCCCCCCCCCCCCCCCCCCCCCCCCCCCCCCCCCCCCCCCCCCCCCCCCCCCCCCCCCCCC",
"CCCCCCCCCCCCCCCCCCCCCCCCCCCCCCCCCCCCCCCCCCCCCCCCCCCCCCCCCCCCCCCC",
"CCCCCCCCCCCCCCCCCCCCCO...................XCCCCCCCCCCCCCCCCCCCCCC",
"CCCCCCCCCCCCCCCCCCCCCO                    CCCCCCCCCCCCCCCCCCCCCC",
"CCCCCCCCCCCCCCCCCCCCC;>>>>>qqqqqqqqq>>>>>>$CCCCCCCCCCCCCCCCCCCCC",
"CCCCCCCCCCCCCCCCCCO.=yaaapazcccccccchapppa2..CCCCCCCCCCCCCCCCCCC",
"CCCCCCCCCCCCCCCCCCo =ugdddgzvvvvvvvvhpdddp>  CCCCCCCCCCCCCCCCCCC",
"CCCCCCCCCCCCCCCCCC;>2ifghhhcvvvvvvvvhpdddp7:>$CCCCCCCCCCCCCCCCCC",
"CCCCCCCCCCCCCCCo.=upassgzvvvvvvvvcvvhpdddppaa2..CCCCCCCCCCCCCCCC",
"CCCCCCCCCCCCCCCo =igdppgcvvvvvvvvvvchpdddsfds2  CCCCCCCCCCCCCCCC",
"CCCCCCCCCCCCCCCo =idghllvvvvvvcvvzzzhpdddddds2  $CCCCCCCCCCCCCCC",
"CCCCCCCCCo.....  =ifgMMMvvvcvvvvvhddpddddfsds2  ........ $CCCCCC",
"CCCCCCCCCX       =idgMMMvvvvvvvvvhpddddddddfp2           $CCCCCC",
"CCCCCCCCCqq>--=+ =idgvvvzzzzzzzzzgddddddddddp5========:qq$CCCCCC",
"CCCCCCo.>zcl894# =idsssssssssssssdfdddddddddp055655555jcce..$CCC",
"CCCCCCX >cvl895# =idfgffffsfgfggffdsddddddddp066666666jvvw  $CCC",
"CCCCCCX :lzlr09# =ifatrtafddfptrrifddddddfdddt00weeeeejzzw  $CCC",
"CCCCCCX -iggppt& =ifu-+=yfffgi-+&tgfddddddddfpppmnnnnnxsg5  $CCC",
"CCCCCCX -agddgt& =igu= &ygddda- #tgffdddddddddffmnnnnnxff6  $CCC",
"CCCCCCX -yyyyyr& =ifu= &ydsdfi- #tgfddddddddsdssmnnnmmjyy4  $CCC",
"CCCCCCX =788885# =ifu= &ydddda- #tgddddddddddddpmnnxapr67:  $CCC",
"CCCCCC. =788995# =ifu= &yfdddi- #tgddddddddddddpmnnxfst77:  $CCC",
"CCCCCC@X*224985# =ifi2:2ifddgi4:>ygdddddddddddfskbbkyy822;XXCCCC",
"CCCCCCCCCo+=785# =iffaaapfsdfdaaapdddddddddddfdfr55777: +$CCCCCC",
"CCCCCCCCCX =785# =igddfddddddddfdddddddddfsdffggr67777-  $CCCCCC",
"CCCCCCCCC@X*22># =igddddddddddddddddddddddsfdt00522222;XXCCCCCCC",
"CCCCCCCCCCCCo    =igdddddddddddddddddddddddfp2 +     +CCCCCCCCCC",
"CCCCCCCCCCCCX    =igdpppggggggpppddddddddddgd2        CCCCCCCCCC",
"CCCCCCCCCCCC@X%. =ifglzliyyyyulzzgddddddddiyy>  OXXXXXCCCCCCCCCC",
"CCCCCCCCCCCCCCCo =ifhBVBw77779NVBlpdffddfd077-  CCCCCCCCCCCCCCCC",
"CCCCCCCCCCCCCCCo =ifhBVBw56669BVVlfdfggggd066-  CCCCCCCCCCCCCCCC",
"CCCCCCCCCCCCCCC@X*0rtNNNr00000NBNlpsiyyyyy722;XXCCCCCCCCCCCCCCCC",
"CCCCCCCCCCCCCCCCCCo#=580ipppppsggfda077777- #CCCCCCCCCCCCCCCCCCC",
"CCCCCCCCCCCCCCCCCCo &588agfddddddfgp066776- +CCCCCCCCCCCCCCCCCCC",
"CCCCCCCCCCCCCCCCCCo #244rttaddddsttt000522= +$CCCCCCCCCCCCCCCCCC",
"CCCCCCCCCCCCCCCCCCo  ++#,<qugddda4<1tda> +   .X.CCCCCCCCCCCCCCCC",
"CCCCCCCCCCCCCCCCCCo    +,<1ugggfa4<1tgp>        CCCCCCCCCCCCCCCC",
"CCCCCCCCCCCCCCCCCC;>:# +,<1wttttrq<1tgp2==->:>>>$CCCCCCCCCCCCCCC",
"CCCCCCCCCCCCCCCo.=usy= +,<<111111<<1tgp056tpaaaa2..CCCCCCCCCCCCC",
"CCCCCCCCCCCCCCCo =ifu= +,<<<<<<<<<<1tfd067yfgfds2  CCCCCCCCCCCCC",
"CCCCCCCCCCCCCCCo =tit= +,<<<<<<<<<<1wtt867ryyafg2  CCCCCCCCCCCCC",
"CCCCCCCCCCCCCCCo &686& +,<<<<<<<<<<<<11476777yss2  CCCCCCCCCCCCC",
"CCCCCCCCCCCCCCCo &685& +,<<<<<<<<<<<<<<477777yff2  CCCCCCCCCCCCC",
"CCCCCCCCCCCCCCC@X*242# +,<<<<<,,,<<<<<<q222229rr3XXCCCCCCCCCCCCC",
"CCCCCCCCCCCCCCCCCCo++  +,<<<<<# +,<<<<<&++   ++#CCCCCCCCCCCCCCCC",
"CCCCCCCCCCCCCCCCCCo    +,<<<<<#  ,<<<<<&        CCCCCCCCCCCCCCCC",
"CCCCCCCCCCCCCCCCCC@XXXXX,,,,,,+  ,,,,,,%XXXXXXXXCCCCCCCCCCCCCCCC",
"CCCCCCCCCCCCCCCCCCCCCCCCO             .CCCCCCCCCCCCCCCCCCCCCCCCC",
"CCCCCCCCCCCCCCCCCCCCCCCCO              CCCCCCCCCCCCCCCCCCCCCCCCC",
"CCCCCCCCCCCCCCCCCCCCCCCC$XXXXXXXXXXXXXXCCCCCCCCCCCCCCCCCCCCCCCCC"
};
